# xmcd CD database file
# Copyright (C) 1996 Ti Kan
#
# Track frame offsets:
# 	150
# 	14897
# 	32017
# 	44265
# 	56612
# 	70047
# 	82535
# 	102192
# 	118380
# 	135945
# 	149497
#
# Disc length: 2272 seconds
#
# Revision: 1
# Processed by: cddbd v1.4b41PL1 Copyright (c) Steve Scherf et al.
# Submitted via: DiscPlay 3.4.1
#
DISCID=9208de0b
DTITLE=Kenny Rogers - Daytime Friends
DYEAR=1900
DGENRE=
TTITLE0=Daytime Friends
TTITLE1=Desperado
TTITLE2=Rock and Roll Man
TTITLE3=Lying Again
TTITLE4=I'll Just Write My Music and Sing My Songs
TTITLE5=My World Begins and Ends With You
TTITLE6=Sweet Music Man
TTITLE7=Am I Too Late
TTITLE8=We Don't Make Love Anymore
TTITLE9=Ghost of Another Man
TTITLE10=Let Me Sing For You
EXTD=
EXTT0=
EXTT1=
EXTT2=
EXTT3=
EXTT4=
EXTT5=
EXTT6=
EXTT7=
EXTT8=
EXTT9=
EXTT10=
PLAYORDER=
